# Made in Blockbench 5.1.4
mtllib Dirt Island.mtl

o cylinder
v 0 0 0
v 0 1 0
v 0.133974375 0 0.5
v 0.133974375 1 0.5
v 0.366025625 0 0.366025625
v 0.366025625 1 0.366025625
v 0.5 0 0.133974375
v 0.5 1 0.133974375
v 0.5 0 -0.133974375
v 0.5 1 -0.133974375
v 0.366025625 0 -0.366025625
v 0.366025625 1 -0.366025625
v 0.133974375 0 -0.5
v 0.133974375 1 -0.5
v -0.133974375 0 -0.5
v -0.133974375 1 -0.5
v -0.366025625 0 -0.366025625
v -0.366025625 1 -0.366025625
v -0.5 0 -0.133974375
v -0.5 1 -0.133974375
v -0.5 0 0.133974375
v -0.5 1 0.133974375
v -0.366025625 0 0.366025625
v -0.366025625 1 0.366025625
v -0.133974375 0 0.5
v -0.133974375 1 0.5
vt 0.9581328125 0.27401578125000003
vt 0.8856171875 0.31640625
vt 0.84375 0.158203125
vt 0.89525203125 0
vt 1 0
vt 1 0.35546875
vt 0.89525203125 0.35546875
vt 0.47052828125 0.23828125
vt 0.64275296875 0.34033250000000004
vt 0.37109375 0.619140625
vt 1 0.20059359374999997
vt 0.9581328125 0.27401578125000003
vt 0.84375 0.158203125
vt 0.68575625 0
vt 0.79050421875 0
vt 0.79050421875 0.35546875
vt 0.68575625 0.35546875
vt 0.64275296875 0.34033250000000004
vt 0.7421875 0.5170893750000001
vt 0.37109375 0.619140625
vt 1 0.11581265625000003
vt 1 0.20059359374999997
vt 0.84375 0.158203125
vt 0.79050421875 0
vt 0.89525203125 0
vt 0.89525203125 0.35546875
vt 0.79050421875 0.35546875
vt 0.7421875 0.5170893750000001
vt 0.7421875 0.7211918749999999
vt 0.37109375 0.619140625
vt 0.9581328125 0.042390468749999966
vt 1 0.11581265625000003
vt 0.84375 0.158203125
vt 0.89525203125 0
vt 1 0
vt 1 0.35546875
vt 0.89525203125 0.35546875
vt 0.7421875 0.7211918749999999
vt 0.64275296875 0.89794875
vt 0.37109375 0.619140625
vt 0.8856171875 0
vt 0.9581328125 0.042390468749999966
vt 0.84375 0.158203125
vt 0.68575625 0
vt 0.79050421875 0
vt 0.79050421875 0.35546875
vt 0.68575625 0.35546875
vt 0.64275296875 0.89794875
vt 0.47052828125 1
vt 0.37109375 0.619140625
vt 0.8018828125 0
vt 0.8856171875 0
vt 0.84375 0.158203125
vt 0.79050421875 0
vt 0.89525203125 0
vt 0.89525203125 0.35546875
vt 0.79050421875 0.35546875
vt 0.47052828125 1
vt 0.27165921875 1
vt 0.37109375 0.619140625
vt 0.7293671875 0.042390468749999966
vt 0.8018828125 0
vt 0.84375 0.158203125
vt 0.89525203125 0
vt 1 0
vt 1 0.35546875
vt 0.89525203125 0.35546875
vt 0.27165921875 1
vt 0.09943453125 0.89794875
vt 0.37109375 0.619140625
vt 0.6875 0.11581265625000003
vt 0.7293671875 0.042390468749999966
vt 0.84375 0.158203125
vt 0.68575625 0
vt 0.79050421875 0
vt 0.79050421875 0.35546875
vt 0.68575625 0.35546875
vt 0.09943453125 0.89794875
vt 0 0.7211918749999999
vt 0.37109375 0.619140625
vt 0.6875 0.20059359374999997
vt 0.6875 0.11581265625000003
vt 0.84375 0.158203125
vt 0.79050421875 0
vt 0.89525203125 0
vt 0.89525203125 0.35546875
vt 0.79050421875 0.35546875
vt 0 0.7211918749999999
vt 0 0.5170893750000001
vt 0.37109375 0.619140625
vt 0.7293671875 0.27401578125000003
vt 0.6875 0.20059359374999997
vt 0.84375 0.158203125
vt 0.89525203125 0
vt 1 0
vt 1 0.35546875
vt 0.89525203125 0.35546875
vt 0 0.5170893750000001
vt 0.09943453125 0.34033250000000004
vt 0.37109375 0.619140625
vt 0.8018828125 0.31640625
vt 0.7293671875 0.27401578125000003
vt 0.84375 0.158203125
vt 0.68575625 0
vt 0.79050421875 0
vt 0.79050421875 0.35546875
vt 0.68575625 0.35546875
vt 0.09943453125 0.34033250000000004
vt 0.27165921875 0.23828125
vt 0.37109375 0.619140625
vt 0.8856171875 0.31640625
vt 0.8018828125 0.31640625
vt 0.84375 0.158203125
vt 0.79050421875 0
vt 0.89525203125 0
vt 0.89525203125 0.35546875
vt 0.79050421875 0.35546875
vt 0.27165921875 0.23828125
vt 0.47052828125 0.23828125
vt 0.37109375 0.619140625
vn 0 -1 0
vn 0.49999866583004415 0 0.8660261740664515
vn 0 1 0
vn 0 -1 0
vn 0.8660261740664515 0 0.49999866583004415
vn 0 1 0
vn 0 -1 0
vn 1 0 0
vn 0 1 0
vn 0 -1 0
vn 0.8660261740664515 0 -0.49999866583004415
vn 0 1 0
vn 0 -1 0
vn 0.49999866583004415 0 -0.8660261740664515
vn 0 1 0
vn 0 -1 0
vn 0 0 -1
vn 0 1 0
vn 0 -1 0
vn -0.49999866583004415 0 -0.8660261740664515
vn 0 1 0
vn 0 -1 0
vn -0.8660261740664515 0 -0.49999866583004415
vn 0 1 0
vn 0 -1 0
vn -1 0 0
vn 0 1 0
vn 0 -1 0
vn -0.8660261740664515 0 0.49999866583004415
vn 0 1 0
vn 0 -1 0
vn -0.49999866583004415 0 0.8660261740664515
vn 0 1 0
vn 0 -1 0
vn 0 0 1
vn 0 1 0
usemtl m_1d5bfae1-c623-6d3d-70e6-e0d336c993ae
f 5/1/1 3/2/1 1/3/1
f 3/4/2 5/5/2 6/6/2 4/7/2
f 4/8/3 6/9/3 2/10/3
f 7/11/4 5/12/4 1/13/4
f 5/14/5 7/15/5 8/16/5 6/17/5
f 6/18/6 8/19/6 2/20/6
f 9/21/7 7/22/7 1/23/7
f 7/24/8 9/25/8 10/26/8 8/27/8
f 8/28/9 10/29/9 2/30/9
f 11/31/10 9/32/10 1/33/10
f 9/34/11 11/35/11 12/36/11 10/37/11
f 10/38/12 12/39/12 2/40/12
f 13/41/13 11/42/13 1/43/13
f 11/44/14 13/45/14 14/46/14 12/47/14
f 12/48/15 14/49/15 2/50/15
f 15/51/16 13/52/16 1/53/16
f 13/54/17 15/55/17 16/56/17 14/57/17
f 14/58/18 16/59/18 2/60/18
f 17/61/19 15/62/19 1/63/19
f 15/64/20 17/65/20 18/66/20 16/67/20
f 16/68/21 18/69/21 2/70/21
f 19/71/22 17/72/22 1/73/22
f 17/74/23 19/75/23 20/76/23 18/77/23
f 18/78/24 20/79/24 2/80/24
f 21/81/25 19/82/25 1/83/25
f 19/84/26 21/85/26 22/86/26 20/87/26
f 20/88/27 22/89/27 2/90/27
f 23/91/28 21/92/28 1/93/28
f 21/94/29 23/95/29 24/96/29 22/97/29
f 22/98/30 24/99/30 2/100/30
f 25/101/31 23/102/31 1/103/31
f 23/104/32 25/105/32 26/106/32 24/107/32
f 24/108/33 26/109/33 2/110/33
f 3/111/34 25/112/34 1/113/34
f 25/114/35 3/115/35 4/116/35 26/117/35
f 26/118/36 4/119/36 2/120/36